{
  "accessors": [
    {
      "bufferView": 2,
      "componentType": 5126,
      "count": 17476,
      "max": [19.324708938598633, 29.768339157104492, 8.038819313049316],
      "min": [-19.11387062072754, 0.014696000143885612, -5.780914783477783],
      "type": "VEC3"
    },
    {
      "bufferView": 2,
      "byteOffset": 209712,
      "componentType": 5126,
      "count": 17476,
      "max": [1.0, 1.0, 1.0],
      "min": [-1.0, -1.0, -1.0],
      "type": "VEC3"
    },
    {
      "bufferView": 1,
      "componentType": 5126,
      "count": 17476,
      "max": [1.0269110202789307, 0.992821991443634],
      "min": [-0.00954699981957674, 0.000658423057757318],
      "type": "VEC2"
    },
    {
      "bufferView": 1,
      "byteOffset": 139808,
      "componentType": 5126,
      "count": 17476,
      "max": [1.0269110202789307, 0.992821991443634],
      "min": [-0.00954699981957674, 0.000658423057757318],
      "type": "VEC2"
    },
    {
      "bufferView": 0,
      "componentType": 5125,
      "count": 89544,
      "type": "SCALAR"
    },
    {
      "bufferView": 2,
      "byteOffset": 419424,
      "componentType": 5126,
      "count": 4,
      "max": [0.8615850210189819, 21.41684913635254, 3.995203971862793],
      "min": [0.4007290005683899, 20.94721221923828, 3.497309923171997],
      "type": "VEC3"
    },
    {
      "bufferView": 2,
      "byteOffset": 419472,
      "componentType": 5126,
      "count": 4,
      "max": [-0.5742964148521423, -0.4623825252056122, 0.6309732794761658],
      "min": [-0.7357808947563171, -0.6269791722297668, 0.4555860757827759],
      "type": "VEC3"
    },
    {
      "bufferView": 1,
      "byteOffset": 279616,
      "componentType": 5126,
      "count": 4,
      "max": [0.3517400026321411, 0.34855198860168457],
      "min": [0.2855469882488251, 0.2821829915046692],
      "type": "VEC2"
    },
    {
      "bufferView": 0,
      "byteOffset": 358176,
      "componentType": 5125,
      "count": 6,
      "type": "SCALAR"
    }
  ],
  "asset": {
    "extras": {
      "author": "avilezfernando2009 (https://sketchfab.com/avilezfernando2009)",
      "license": "CC-BY-4.0 (http://creativecommons.org/licenses/by/4.0/)",
      "source": "https://sketchfab.com/3d-models/spongebob-squarepants-custom-model-016aa8df34e946faa02a145bdabe4b48",
      "title": "spongebob squarepants custom model"
    },
    "generator": "Sketchfab-12.67.0",
    "version": "2.0"
  },
  "bufferViews": [
    {
      "buffer": 0,
      "byteLength": 358200,
      "name": "floatBufferViews",
      "target": 34963
    },
    {
      "buffer": 0,
      "byteLength": 279648,
      "byteOffset": 358200,
      "byteStride": 8,
      "name": "floatBufferViews",
      "target": 34962
    },
    {
      "buffer": 0,
      "byteLength": 419520,
      "byteOffset": 637848,
      "byteStride": 12,
      "name": "floatBufferViews",
      "target": 34962
    }
  ],
  "buffers": [
    {
      "byteLength": 1057368,
      "uri": "scene.bin"
    }
  ],
  "extensionsRequired": [],
  "extensionsUsed": [],
  "images": [
    {
      "uri": "textures/chr_sb05_png_diffuse.png"
    }
  ],
  "materials": [
    {
      "doubleSided": true,
      "extensions": {},
      "name": "chr_sb05_png"
    },
    {
      "doubleSided": true,
      "extensions": {},
      "name": "Material_2.002"
    }
  ],
  "meshes": [
    {
      "name": "spongebob_chr_sb05_png_0",
      "primitives": [
        {
          "attributes": {
            "NORMAL": 1,
            "POSITION": 0,
            "TEXCOORD_0": 2,
            "TEXCOORD_1": 3
          },
          "indices": 4,
          "material": 0,
          "mode": 4
        }
      ]
    },
    {
      "name": "spongebob_Material_2.002_0",
      "primitives": [
        {
          "attributes": {
            "NORMAL": 6,
            "POSITION": 5,
            "TEXCOORD_0": 7
          },
          "indices": 8,
          "material": 1,
          "mode": 4
        }
      ]
    }
  ],
  "nodes": [
    {
      "children": [1],
      "matrix": [
        1.0, 0.0, 0.0, 0.0, 0.0, 2.220446049250313e-16, -1.0, 0.0, 0.0, 1.0,
        2.220446049250313e-16, 0.0, 0.0, 0.0, 0.0, 1.0
      ],
      "name": "Sketchfab_model"
    },
    {
      "children": [2],
      "matrix": [
        0.009999999776482582, 0.0, 0.0, 0.0, 0.0, 0.0, 0.009999999776482582,
        0.0, 0.0, -0.009999999776482582, 0.0, 0.0, 0.0, 0.0, 0.0, 1.0
      ],
      "name": "4ad08fecf94f4d8081bbdf4aee43e51d.fbx"
    },
    {
      "children": [3, 6, 8, 11, 13, 16, 18],
      "name": "RootNode"
    },
    {
      "children": [4],
      "matrix": [
        -29.08647719990347, -5.518906457566863, -95.51711910171437, 0.0,
        56.63930913109449, 79.46723428563203, -21.83912397841966, 0.0,
        77.11008775993375, -60.45246356562044, -19.98834696773717, 0.0,
        407.6245422363281, 590.38623046875, -100.54539489746094, 1.0
      ],
      "name": "Light"
    },
    {
      "children": [5],
      "matrix": [
        1.0, 0.0, 0.0, 0.0, 0.0, 2.220446049250313e-16, 1.0, 0.0, 0.0, -1.0,
        2.220446049250313e-16, 0.0, 0.0, 0.0, 0.0, 1.0
      ],
      "name": "Object_4"
    },
    {
      "name": "Object_5"
    },
    {
      "children": [7],
      "matrix": [
        -65.15581009765468, -44.527143038140764, -61.41704928909654, 0.0,
        -32.40135466989878, 89.5395708958271, -30.542085476036902, 0.0,
        68.59207001076176, 1.2755314797120858e-5, -72.76761921184276, 0.0,
        735.88916015625, 495.8309326171875, 692.5791015625, 1.0
      ],
      "name": "Camera"
    },
    {
      "name": "Object_7"
    },
    {
      "children": [9],
      "matrix": [
        -29.086487812475738, -5.518899490682427, -95.51710828509437, 0.0,
        56.63931187190732, 79.46723133347481, -21.83912761235705, 0.0,
        77.11007502349715, -60.452463431784, -19.98835833730749, 0.0,
        407.6245422363281, 590.38623046875, -100.54539489746094, 1.0
      ],
      "name": "Light.001"
    },
    {
      "children": [10],
      "matrix": [
        1.0, 0.0, 0.0, 0.0, 0.0, 2.220446049250313e-16, 1.0, 0.0, 0.0, -1.0,
        2.220446049250313e-16, 0.0, 0.0, 0.0, 0.0, 1.0
      ],
      "name": "Object_9"
    },
    {
      "name": "Object_10"
    },
    {
      "children": [12],
      "matrix": [
        -65.15580778068511, -44.52713575740065, -61.417044603347584, 0.0,
        -32.40135094930404, 89.53956599577076, -30.542078808572406, 0.0,
        68.5920680794917, 1.4003882456604058e-5, -72.76762103229252, 0.0,
        735.88916015625, 495.8309326171875, 692.5791015625, 1.0
      ],
      "name": "Camera.001"
    },
    {
      "name": "Object_12"
    },
    {
      "children": [14],
      "matrix": [
        -29.086487812475738, -5.518899490682427, -95.51710828509437, 0.0,
        56.63931619314388, 79.46723739634342, -21.839129278550256, 0.0,
        77.11007502349715, -60.452463431784, -19.98835833730749, 0.0,
        407.6245422363281, 590.38623046875, -100.54539489746094, 1.0
      ],
      "name": "Light.002"
    },
    {
      "children": [15],
      "matrix": [
        1.0, 0.0, 0.0, 0.0, 0.0, 2.220446049250313e-16, 1.0, 0.0, 0.0, -1.0,
        2.220446049250313e-16, 0.0, 0.0, 0.0, 0.0, 1.0
      ],
      "name": "Object_14"
    },
    {
      "name": "Object_15"
    },
    {
      "children": [17],
      "matrix": [
        -65.15582105080276, -44.527116339454786, -61.41704460334753, 0.0,
        -32.40134470646186, 89.5395756521198, -30.542057122128373, 0.0,
        68.59205842314336, 2.024672413742446e-5, -72.76763013453737, 0.0,
        735.88916015625, 495.8309326171875, 692.5791015625, 1.0
      ],
      "name": "Camera.002"
    },
    {
      "name": "Object_17"
    },
    {
      "children": [19, 20],
      "matrix": [
        100.0, 0.0, 0.0, 0.0, 0.0, 99.99999999999866, 1.6292067073209114e-5,
        0.0, 0.0, -1.6292067073209114e-5, 99.99999999999866, 0.0,
        238.78436279296875, 14.480683326721191, -13.626861572265625, 1.0
      ],
      "name": "spongebob"
    },
    {
      "mesh": 0,
      "name": "spongebob_chr_sb05_png_0"
    },
    {
      "mesh": 1,
      "name": "spongebob_Material_2.002_0"
    }
  ],
  "samplers": [
    {
      "magFilter": 9729,
      "minFilter": 9987,
      "wrapS": 10497,
      "wrapT": 10497
    }
  ],
  "scene": 0,
  "scenes": [
    {
      "name": "Sketchfab_Scene",
      "nodes": [0]
    }
  ],
  "textures": [
    {
      "sampler": 0,
      "source": 0
    }
  ]
}
